<?xml version="1.0" encoding="utf-8"?>
<!-- Generator: Adobe Illustrator 25.1.0, SVG Export Plug-In . SVG Version: 6.00 Build 0)  -->
<svg version="1.1" id="Layer_1" xmlns="http://www.w3.org/2000/svg" xmlns:xlink="http://www.w3.org/1999/xlink" x="0px" y="0px"
	 viewBox="0 0 432 861.6" style="enable-background:new 0 0 432 861.6;" xml:space="preserve">
<style type="text/css">
	.st0{fill:#2C2C2C;}
	.st1{fill:#FFFFFF;}
	.st2{fill:#7F7F7F;}
</style>
<rect x="179.9" y="26" class="st0" width="100" height="20"/>
<g id="Layer_2_1_">
	<g id="Layer_1-2">
		<path class="st1" d="M363.4,12C393,12,417,36,417,65.6V796c0,29.6-24,53.6-53.6,53.6H68.6C39,849.6,15,825.6,15,796V65.6
			C15,36,39,12,68.6,12H363.4 M363.4,6H68.6C35.7,6,9,32.7,9,65.6V796c0,32.9,26.7,59.6,59.6,59.6c0,0,0,0,0,0h294.8
			c32.9,0,59.6-26.7,59.6-59.6c0,0,0,0,0,0V65.6C423,32.7,396.3,6,363.4,6C363.4,6,363.4,6,363.4,6z"/>
		<path class="st2" d="M9,67C9.1,33.3,36.4,6,70.2,6h291.7c33.7,0,61.1,27.3,61.1,61v22h6V67c0-37-30-67-67-67H70C33,0,3,30,3,67v22
			h6V67z"/>
		<path class="st2" d="M423,794.6c-0.1,33.7-27.4,61-61.1,61H70.2c-33.7,0-61.1-27.3-61.2-61v-21H3v21c0,37,30,67,67,67h292.1
			c37,0,66.9-30,66.9-67v-21h-6V794.6z"/>
		<path class="st2" d="M429.6,209H429V94h-6v674.6h6V315h0.6c1.3,0,2.4-1.1,2.4-2.4V211.4C432,210.1,430.9,209,429.6,209z"/>
		<path class="st2" d="M3,570.2v198.5h6V94H3v29H2.4c-1.3,0-2.4,1.1-2.4,2.4c0,0,0,0,0,0v30.3c0,1.3,1.1,2.4,2.4,2.4c0,0,0,0,0,0H3
			v30H2.4c-1.3,0-2.4,1.1-2.4,2.4c0,0,0,0,0,0v61.3c0,1.3,1.1,2.4,2.4,2.4c0,0,0,0,0,0H3v18H2.4c-1.3,0-2.4,1.1-2.4,2.4v61.3
			c0,1.3,1.1,2.4,2.4,2.4c0,0,0,0,0,0H3V570.2z"/>
		<path class="st2" d="M361,11H70.7C39.3,11.1,13.9,36.6,14,67.9v726.1c0.1,31.3,25.6,56.7,57,56.6c0,0,0,0,0,0h290.3
			c31.4-0.1,56.7-25.6,56.7-56.9c0,0,0,0,0,0V67.5C417.9,36.2,392.4,10.9,361,11C361,11,361,11,361,11z M261,29c3.9,0,7,3.1,7,7
			s-3.1,7-7,7s-7-3.1-7-7S257.1,29,261,29z M193,33h46c1.7,0,3,1.3,3,3s-1.3,3-3,3h-46c-1.7,0-3-1.3-3-3S191.3,33,193,33z
			 M403,533.2v262.4c0,22.6-18.4,41-41,41H69c-22.6,0-41-18.4-41-41V66c0-22.6,18.4-41,41-41h35c3.9,0,7,3.1,7,7v1.4
			c0,13,10.6,23.6,23.6,23.6h162.8c13,0,23.6-10.6,23.6-23.6v-1.6c0.1-3.8,3.2-6.8,7-6.8h34c22.6,0,41,18.4,41,41V533.2z"/>
	</g>
</g>
</svg>
