<svg xmlns="http://www.w3.org/2000/svg" viewBox="0 0 432 861.61"><defs><style>.cls-1{fill:#fff;}.cls-2{fill:#7f7f7f;}</style></defs><g id="Layer_2" data-name="Layer 2"><g id="Layer_1-2" data-name="Layer 1"><path class="cls-1" d="M363.4,12A53.65,53.65,0,0,1,417,65.6V796a53.65,53.65,0,0,1-53.6,53.59H68.6A53.65,53.65,0,0,1,15,796V65.6A53.65,53.65,0,0,1,68.6,12H363.4m0-6H68.6A59.6,59.6,0,0,0,9,65.6V796a59.59,59.59,0,0,0,59.6,59.59H363.4A59.59,59.59,0,0,0,423,796V65.6A59.6,59.6,0,0,0,363.4,6Z"/><path class="cls-2" d="M9,67A61.15,61.15,0,0,1,70.15,6h291.7A61.15,61.15,0,0,1,423,67V89h6V67A67,67,0,0,0,362,0H70A67,67,0,0,0,3,67V89H9Z"/><path class="cls-2" d="M423,794.61a61.12,61.12,0,0,1-61.15,61H70.15A61.15,61.15,0,0,1,9,794.61v-21H3v21a67,67,0,0,0,67,67H362.14a66.94,66.94,0,0,0,66.86-67v-21h-6Z"/><path class="cls-2" d="M429.64,209H429V94h-6V768.61h6V315h.64a2.36,2.36,0,0,0,2.36-2.36V211.36A2.36,2.36,0,0,0,429.64,209Z"/><path class="cls-2" d="M3,570.15V768.61H9V94H3v29H2.36A2.36,2.36,0,0,0,0,125.36v30.28A2.36,2.36,0,0,0,2.36,158H3v30H2.36A2.36,2.36,0,0,0,0,190.36v61.28A2.36,2.36,0,0,0,2.36,254H3v18H2.36A2.36,2.36,0,0,0,0,274.36v61.28A2.36,2.36,0,0,0,2.36,338H3Z"/><path class="cls-2" d="M361,11H70.68A56.81,56.81,0,0,0,14,67.93V794.06a56.76,56.76,0,0,0,57,56.55H361.32A56.8,56.8,0,0,0,418,793.68V67.54A56.77,56.77,0,0,0,361,11ZM261,29a7,7,0,1,1-7,7A7,7,0,0,1,261,29Zm-68,4h46a3,3,0,0,1,0,6H193a3,3,0,0,1,0-6ZM403,533.21v262.4a41.06,41.06,0,0,1-41,41H69a41.06,41.06,0,0,1-41-41V66A41.06,41.06,0,0,1,69,25h35a7,7,0,0,1,7,7v1.4A23.62,23.62,0,0,0,134.6,57H297.4A23.62,23.62,0,0,0,321,33.4V31.83A7,7,0,0,1,328,25h34a41.06,41.06,0,0,1,41,41Z"/></g></g></svg>