<svg xmlns="http://www.w3.org/2000/svg" xmlns:xlink="http://www.w3.org/1999/xlink" viewBox="0 0 864 752.48"><defs><style>.cls-1{fill:#2c2c2c;}.cls-2{fill:url(#linear-gradient);}</style><linearGradient id="linear-gradient" x1="153.59" y1="3603.13" x2="768.85" y2="2987.81" gradientTransform="matrix(1, 0, 0, -1, 0, 3544.87)" gradientUnits="userSpaceOnUse"><stop offset="0" stop-color="#ffad00"/><stop offset="1" stop-color="#008ecc"/></linearGradient></defs><g id="Layer_2" data-name="Layer 2"><g id="Layer_1-2" data-name="Layer 1"><g id="Layer_2-2" data-name="Layer 2"><g id="Layer_1-2-2" data-name="Layer 1-2"><path class="cls-1" d="M54.79,254.93a14.39,14.39,0,0,1,4.91-.74H241.78a62.48,62.48,0,0,1,24.91,4.07,77.3,77.3,0,0,1,31.23,19.54,428.26,428.26,0,0,0,33.88,32.53A68.93,68.93,0,0,0,375,326.14H555.67a102.19,102.19,0,0,1,27.16,4.41,66.4,66.4,0,0,1,29.37,18.63c49.64,49.19,98.89,98.89,148.58,148.14a24.06,24.06,0,0,1-5.19,39.53,46.1,46.1,0,0,1-13.44,2.71,23.44,23.44,0,0,0-15.14,38c1.47,1.75,3,3.44,4.63,5.08,21.58,21.63,43.37,43,64.61,64.89a62.13,62.13,0,0,1,4,80.53,60,60,0,0,1-48.8,24.35c-29.42.28-58.9,0-88.32,0H454.29A77.61,77.61,0,0,1,397,728.58q-59.92-59.8-119.67-119.73a79.57,79.57,0,0,0-60.49-25.07c-16.94.39-33.43,0-50.15,0a75.29,75.29,0,0,1-45.51-14.63A157.1,157.1,0,0,1,103.64,553l-61.1-61.11c-.79-.73-1.7-1.35-2.49-2-6.61-7.85-14.46-14.46-21.35-22A128,128,0,0,1,6.28,455a30.45,30.45,0,0,1-3.45-31.34,29.39,29.39,0,0,1,26.49-18.36,32.71,32.71,0,0,0,29.2-16.94,30.89,30.89,0,0,0-5.65-37.22C46.09,344,39,337.21,32.15,330.21a44.07,44.07,0,0,1,7.39-69.41A51.1,51.1,0,0,1,54.79,254.93Z"/><path class="cls-2" d="M105.62.79a14.35,14.35,0,0,1,4.91-.74H292.61a62.43,62.43,0,0,1,24.9,4.07,77.27,77.27,0,0,1,31.23,19.54,424.83,424.83,0,0,0,33.89,32.53A68.93,68.93,0,0,0,425.77,72H606.49a103,103,0,0,1,27.17,4.41A66.33,66.33,0,0,1,663,95.05c49.64,49.18,98.88,98.88,148.58,148.13a24.05,24.05,0,0,1-5.2,39.53A45.71,45.71,0,0,1,793,285.42a23.44,23.44,0,0,0-15.13,37.95c1.47,1.75,3,3.45,4.63,5.09,21.57,21.63,43.37,43,64.61,64.88a62.14,62.14,0,0,1,4,80.54,60,60,0,0,1-48.8,24.34H505.12a77.57,77.57,0,0,1-57.26-23.78Q388,414.64,328.19,354.72a79.58,79.58,0,0,0-60.49-25.08c-16.94.4-33.43,0-50.15,0A75.24,75.24,0,0,1,172,315a157.88,157.88,0,0,1-17.56-16.15l-61.11-61.1c-.79-.74-1.69-1.36-2.48-2-6.61-7.85-14.46-14.45-21.35-22a126.94,126.94,0,0,1-12.42-12.88,30.45,30.45,0,0,1-3.45-31.34,29.39,29.39,0,0,1,26.49-18.36,32.67,32.67,0,0,0,29.2-16.94A30.89,30.89,0,0,0,103.7,97C96.92,89.85,89.86,83.07,83,76.07a44.05,44.05,0,0,1,7.4-69.41A51.26,51.26,0,0,1,105.62.79Z"/></g></g></g></g></svg>