<svg version="1.1" id="Capa_1" xmlns="http://www.w3.org/2000/svg" xmlns:xlink="http://www.w3.org/1999/xlink" x="0px" y="0px"
	 viewBox="0 0 512 512" style="enable-background:new 0 0 512 512;" xml:space="preserve">
<style type="text/css">
	.st0{fill:#FFAD00;}
</style>
<path class="st0" d="M491.1,357.3c0.4-0.7,0.7-1.4,0.9-2.2c12.8-30.5,20-64,20-99.1c0-58.8-20-113.1-53.4-156.3
	c-0.5-1-1.2-1.9-2.1-2.7C409.5,37.9,337.1,0,256,0c-10.7,0-21.2,0.7-31.6,1.9c-0.3,0-0.6,0.1-0.9,0.1C97.7,18,0,125.8,0,256
	c0,58.9,20,113.3,53.6,156.6c0.6,1,1.3,1.9,2.2,2.7C102.8,474.2,175,512,256,512c10.9,0,21.7-0.7,32.2-2c0,0,0.1,0,0.1,0
	C379.5,498.4,455.9,438.8,491.1,357.3z M292.6,487.8L222,362.7h243C431.4,428.2,367.9,475.9,292.6,487.8z M302.2,170.7l48.7,86.2
	l-47.8,84.4h-93.2l-48.7-86.2l47.7-84.4H302.2z M474.6,341.3H327.7l122.7-216.7c25.5,37.5,40.3,82.8,40.3,131.4
	C490.7,286.1,485,314.9,474.6,341.3z M436.3,106l-73.1,129.2L242.7,21.7c4.4-0.2,8.9-0.4,13.3-0.4C328.4,21.3,393.2,54.3,436.3,106z
	 M219.5,24.2l70.7,125.2H47C80.6,83.8,144.2,36,219.5,24.2z M37.4,170.7h147l-44,78c-0.5,0.7-0.9,1.4-1.2,2.2L61.9,387.7
	C36.3,350.1,21.3,304.8,21.3,256C21.3,225.9,27,197.1,37.4,170.7z M75.9,406.3L149,276.8l44.8,79.4c0.3,0.7,0.7,1.3,1.1,2
	l74.6,132.1c-4.5,0.3-9,0.4-13.5,0.4C183.7,490.7,119,457.8,75.9,406.3z"/>
</svg>
