<svg xmlns="http://www.w3.org/2000/svg" viewBox="0 0 70 80"><defs><style>.cls-1{fill:#ffad00;}</style></defs><g id="Layer_2" data-name="Layer 2"><g id="Layer_1-2" data-name="Layer 1"><path class="cls-1" d="M69.3,13.46a7.73,7.73,0,0,0-5.22-6.31C60.79,6.07,55.19,4.3,49.64,2.8S38.45,0,35,0,25.79,1.32,20.36,2.8q-7.27,2-14.43,4.35A7.69,7.69,0,0,0,.71,13.46c-3,22.38,3.93,39,12.32,49.95A58.79,58.79,0,0,0,25.62,75.67a35,35,0,0,0,5.24,3.13A10.58,10.58,0,0,0,35,80a10.67,10.67,0,0,0,4.15-1.2,36.09,36.09,0,0,0,5.24-3.13A59,59,0,0,0,57,63.41C65.36,52.43,72.28,35.84,69.3,13.46ZM52.87,60.12A53.52,53.52,0,0,1,41.44,71.28,31.22,31.22,0,0,1,37,74a12.39,12.39,0,0,1-1.47.59,2.15,2.15,0,0,1-.5.12,2.15,2.15,0,0,1-.5-.12A12.39,12.39,0,0,1,33,74a31.2,31.2,0,0,1-4.46-2.67A53.34,53.34,0,0,1,17.13,60.12C9.5,50.13,3.1,35,5.87,14.18a2.38,2.38,0,0,1,1.64-1.95q7-2.31,14.18-4.28h0C27.24,6.45,32.35,5.33,35,5.33S42.76,6.45,48.31,8s10.93,3.21,14.18,4.28a2.4,2.4,0,0,1,1.65,1.95C66.91,35,60.51,50.13,52.87,60.12Z"/><path class="cls-1" d="M49.27,25.73a2.5,2.5,0,0,0-3.54,0L32.5,39l-5.73-5.73a2.5,2.5,0,0,0-3.54,3.54l7.5,7.5h0a2.5,2.5,0,0,0,3.54,0l15-15h0a2.5,2.5,0,0,0,0-3.54Z"/></g></g></svg>