<svg xmlns="http://www.w3.org/2000/svg" viewBox="0 0 80 80"><defs><style>.cls-1{fill:#ffad00;}</style></defs><g id="Layer_2" data-name="Layer 2"><g id="Layer_1-2" data-name="Layer 1"><path class="cls-1" d="M35.34,3.64a4.8,4.8,0,0,1,9.32,0L45,5.07a4.8,4.8,0,0,0,8.11,2.17l1-1.06a4.8,4.8,0,0,1,8.06,4.66l-.4,1.42a4.8,4.8,0,0,0,3.3,5.93,4.74,4.74,0,0,0,2.64,0l1.41-.4a4.8,4.8,0,0,1,4.66,8.06l-1.06,1A4.81,4.81,0,0,0,74.93,35l1.43.35a4.8,4.8,0,0,1,0,9.32L74.93,45a4.8,4.8,0,0,0-2.17,8.11l1.06,1a4.8,4.8,0,0,1-4.66,8.06l-1.42-.4a4.8,4.8,0,0,0-5.93,3.3,4.74,4.74,0,0,0,0,2.64l.4,1.41a4.8,4.8,0,0,1-8.06,4.66l-1-1.06A4.81,4.81,0,0,0,45,74.93l-.35,1.43a4.8,4.8,0,0,1-9.32,0L35,74.93a4.8,4.8,0,0,0-8.11-2.17l-1,1.06a4.8,4.8,0,0,1-8.06-4.66l.4-1.42a4.8,4.8,0,0,0-3.3-5.93,4.71,4.71,0,0,0-2.63,0l-1.42.4a4.8,4.8,0,0,1-4.66-8.06l1.06-1A4.81,4.81,0,0,0,5.07,45l-1.43-.35a4.8,4.8,0,0,1,0-9.32L5.07,35a4.8,4.8,0,0,0,2.17-8.11l-1.06-1a4.8,4.8,0,0,1,4.66-8.06l1.42.4a4.8,4.8,0,0,0,5.93-3.3,4.71,4.71,0,0,0,0-2.63l-.4-1.42a4.8,4.8,0,0,1,8.06-4.66l1,1.06A4.81,4.81,0,0,0,35,5.07ZM64.86,42.5H41.25L27.08,61.39A25,25,0,0,0,64.86,42.5Zm0-5A25,25,0,0,0,27.08,18.61l14.17,18.9H64.86ZM25.24,19.84c-.15.1-.29.21-.43.32Zm-2.15,1.77a25,25,0,0,0,0,36.78L36.88,40Zm1.72,38.23.43.32Z"/></g></g></svg>