<svg xmlns="http://www.w3.org/2000/svg" viewBox="0 0 106.67 80"><defs><style>.cls-1{fill:#ffad00;}</style></defs><g id="Layer_2" data-name="Layer 2"><g id="Layer_1-2" data-name="Layer 1"><path class="cls-1" d="M102.76,17.24a13.34,13.34,0,0,0-9.43-3.91H85.52a13.33,13.33,0,0,1-9.43-3.9L70.57,3.91A13.33,13.33,0,0,0,61.15,0H45.52a13.34,13.34,0,0,0-9.43,3.91L30.57,9.43a13.32,13.32,0,0,1-9.42,3.9H13.33A13.35,13.35,0,0,0,0,26.67v40A13.35,13.35,0,0,0,13.33,80h80a13.35,13.35,0,0,0,13.34-13.33v-40A13.34,13.34,0,0,0,102.76,17.24ZM100,66.67a6.66,6.66,0,0,1-6.67,6.66h-80a6.66,6.66,0,0,1-6.66-6.66v-40A6.66,6.66,0,0,1,13.33,20h7.82a20,20,0,0,0,14.13-5.86l5.53-5.52a6.65,6.65,0,0,1,4.7-1.95H61.14a6.65,6.65,0,0,1,4.71,1.95l5.52,5.52a20.15,20.15,0,0,0,6.49,4.34A20.13,20.13,0,0,0,85.52,20h7.81A6.66,6.66,0,0,1,100,26.67Z"/><path class="cls-1" d="M16.67,26.67a3.33,3.33,0,1,0,2.35,1A3.34,3.34,0,0,0,16.67,26.67Z"/><path class="cls-1" d="M53.33,20a23.34,23.34,0,1,0,16.5,6.83A23.36,23.36,0,0,0,53.33,20ZM65.12,55.12A16.67,16.67,0,1,1,70,43.33,16.71,16.71,0,0,1,65.12,55.12Z"/></g></g></svg>