<svg xmlns="http://www.w3.org/2000/svg" viewBox="0 0 80 69.01"><defs><style>.cls-1{fill:#ffad00;}</style></defs><g id="Layer_2" data-name="Layer 2"><g id="Layer_1-2" data-name="Layer 1"><path class="cls-1" d="M68.29.73a2.52,2.52,0,0,0-3.54,0h0a2.5,2.5,0,0,0,0,3.53h0a35,35,0,0,1,0,49.5,2.5,2.5,0,0,0,3.54,3.54A40,40,0,0,0,68.29.73Z"/><path class="cls-1" d="M15.25,53.76a35,35,0,0,1,0-49.5A2.5,2.5,0,0,0,11.72.73h0a40,40,0,0,0,0,56.57,2.5,2.5,0,0,0,3.53-3.54Z"/><path class="cls-1" d="M25.86,11.33a2.5,2.5,0,0,0-3.54,0h0a25,25,0,0,0,0,35.35,2.5,2.5,0,1,0,3.54-3.54,20,20,0,0,1,0-28.28A2.5,2.5,0,0,0,25.86,11.33Z"/><path class="cls-1" d="M40,19A10,10,0,0,0,37.5,38.7V66.51a2.5,2.5,0,0,0,5,0V38.7A10,10,0,0,0,40,19Z"/><path class="cls-1" d="M57.68,11.33h0a2.5,2.5,0,0,0-3.54,0h0a2.49,2.49,0,0,0,0,3.53,20,20,0,0,1,0,28.28,2.5,2.5,0,1,0,3.54,3.54h0A25,25,0,0,0,57.68,11.33Z"/></g></g></svg>