<svg xmlns="http://www.w3.org/2000/svg" viewBox="0 0 30 30"><defs><style>.cls-1{fill:#fff;}</style></defs><g id="Layer_2" data-name="Layer 2"><g id="Layer_1-2" data-name="Layer 1"><path class="cls-1" d="M20.62,0H9.38A9.38,9.38,0,0,0,0,9.38V20.62A9.38,9.38,0,0,0,9.38,30H20.62A9.38,9.38,0,0,0,30,20.62V9.38A9.38,9.38,0,0,0,20.62,0Zm6.57,20.62a6.58,6.58,0,0,1-6.57,6.57H9.38a6.58,6.58,0,0,1-6.57-6.57V9.38A6.58,6.58,0,0,1,9.38,2.81H20.62a6.58,6.58,0,0,1,6.57,6.57Z"/><path class="cls-1" d="M15,7.5A7.5,7.5,0,1,0,22.5,15,7.5,7.5,0,0,0,15,7.5Zm0,12.19A4.69,4.69,0,1,1,19.69,15,4.7,4.7,0,0,1,15,19.69Z"/><path class="cls-1" d="M23.06,5.94a1,1,0,1,0,1,1A1,1,0,0,0,23.06,5.94Z"/></g></g></svg>