<svg xmlns="http://www.w3.org/2000/svg" viewBox="0 0 30 23.56"><defs><style>.cls-1{fill:#fff;}</style></defs><g id="Layer_2" data-name="Layer 2"><g id="Layer_1-2" data-name="Layer 1"><path class="cls-1" d="M30,2.79a13.21,13.21,0,0,1-3.54.94A6,6,0,0,0,29.16.44a12.43,12.43,0,0,1-3.9,1.44A6.28,6.28,0,0,0,20.77,0a6,6,0,0,0-6.15,6,5.43,5.43,0,0,0,.15,1.35A17.6,17.6,0,0,1,2.09,1.08a5.85,5.85,0,0,0-.84,3A5.89,5.89,0,0,0,4,9,6.34,6.34,0,0,1,1.2,8.3v.06A6,6,0,0,0,6.13,14.2a6,6,0,0,1-1.62.2,5.56,5.56,0,0,1-1.16-.1A6.2,6.2,0,0,0,9.1,18.44,12.67,12.67,0,0,1,1.47,21,11.84,11.84,0,0,1,0,20.89a17.72,17.72,0,0,0,9.44,2.67A17.08,17.08,0,0,0,26.94,6.64c0-.26,0-.51,0-.76A12.22,12.22,0,0,0,30,2.79Z"/></g></g></svg>