<svg xmlns="http://www.w3.org/2000/svg" viewBox="0 0 33.04 40"><defs><style>.cls-1,.cls-2{fill:#fff;}.cls-1{fill-rule:evenodd;}</style></defs><g id="Layer_2" data-name="Layer 2"><g id="Layer_1-2" data-name="Layer 1"><path class="cls-1" d="M12.18,29.19,9.05,26.06a.49.49,0,0,0-.33-.13L4.32,26a.45.45,0,0,0-.32.14L.12,30.25a.46.46,0,0,0,0,.66l1.43,1.22a.45.45,0,0,0,.55,0A15.49,15.49,0,0,1,8.73,29.3h0c1.11-.08,2.25-.11,3.41-.1"/><path class="cls-1" d="M13,30.29a40.4,40.4,0,0,0-4.14.08,14.1,14.1,0,0,0-5.68,2.38.45.45,0,0,0,0,.72l4.22,3.6a.45.45,0,0,0,.7-.15c1.45-3.19,3.09-5.4,4.94-6.63"/><path class="cls-1" d="M13.25,31.44C11.19,33,9.74,35.75,8.82,37.89h0a.46.46,0,0,0,.12.53l1.72,1.47a.44.44,0,0,0,.59,0l5.22-4.55a.43.43,0,0,1,.28-.11L21,35.09a.45.45,0,0,0,.43-.5c-.09-.79-.16-1.53-.2-2.24,0-.32,0-.53,0-.77a.45.45,0,0,0-.37-.46L20.15,31c-1.16-.19-2.32-.35-3.49-.47a4.49,4.49,0,0,0-3.41.91"/><path class="cls-1" d="M22.32,31.39a32.4,32.4,0,0,0,.24,3.24A.45.45,0,0,0,23,35l5.83-.19a.46.46,0,0,0,.33-.15l3.74-4.3a.44.44,0,0,0-.1-.68L30,28a.44.44,0,0,0-.52.05Q25,31.72,22.34,31.39Z"/><path class="cls-1" d="M22.53,30.33c1.73.16,4-1.37,5.69-2.69a.45.45,0,0,0,0-.74l-3.37-2a.46.46,0,0,0-.5,0l-.11.08c-1.42,1.05-1.8,3.36-1.87,5.32Z"/><path class="cls-1" d="M21.25,30.09c.09-2.26.58-4.33,1.84-5.58a.46.46,0,0,0-.08-.72l-.23-.14a.47.47,0,0,0-.57.08,3.61,3.61,0,0,1-.33.35L17.2,28.76a.45.45,0,0,0,.26.77c1.27.14,2.53.34,3.79.56"/><path class="cls-1" d="M21.12,9.08a9.36,9.36,0,0,0-5.93-2.71.67.67,0,0,0-.72.66V8.84a.66.66,0,0,0,.6.66,6.24,6.24,0,0,1,5.63,5.63.65.65,0,0,0,.66.59h1.8a.67.67,0,0,0,.67-.72,9.34,9.34,0,0,0-2.71-5.92"/><path class="cls-1" d="M14.47,2.51a.67.67,0,0,0,.64.67A12.51,12.51,0,0,1,27,15.09a.66.66,0,0,0,.67.63h1.84A.67.67,0,0,0,30.2,15a15.72,15.72,0,0,0-15-15,.67.67,0,0,0-.7.67Z"/><path class="cls-1" d="M18.9,20.15a6.26,6.26,0,0,1-9.28-8.37,6.35,6.35,0,0,1,1.48-1.32.43.43,0,0,0,.2-.35V7.49a.42.42,0,0,0-.58-.38,9.28,9.28,0,0,0-2.89,2,9.42,9.42,0,0,0,0,13.29L9.36,23.9l4.88,4.88a.32.32,0,0,0,.46,0C17,26.54,19.41,24.33,21.51,22a9.16,9.16,0,0,0,.68-.86,9.54,9.54,0,0,0,1-1.83.26.26,0,0,0-.25-.36H20a.25.25,0,0,0-.22.13l-.31.44,0,0-.41.54Z"/><circle class="cls-2" cx="14.48" cy="15.73" r="2.27"/></g></g></svg>