<svg xmlns="http://www.w3.org/2000/svg" viewBox="0 0 79.81 96.5"><defs><style>.cls-1{fill:none;stroke:#f2f2f2;stroke-miterlimit:10;fill-rule:evenodd;}.cls-2{fill:#f2f2f2;}</style></defs><g id="Layer_2" data-name="Layer 2"><g id="Layer_1-2" data-name="Layer 1"><path class="cls-1" d="M29.72,70.06l-7.5-7.51a1.09,1.09,0,0,0-.78-.31l-10.56.15a1.12,1.12,0,0,0-.78.34L.79,72.61a1.09,1.09,0,0,0,.09,1.57l3.44,2.94a1.07,1.07,0,0,0,1.32,0Q14,71.38,21.46,70.31h.1q4-.28,8.16-.24"/><path class="cls-1" d="M31.72,72.69c-2.53-.08-7.61,0-9.94.19A33.93,33.93,0,0,0,8.17,78.59a1.09,1.09,0,0,0-.11,1.73L18.18,89a1.08,1.08,0,0,0,1.69-.37q5.2-11.46,11.85-15.91"/><path class="cls-1" d="M32.3,75.46c-4.94,3.77-8.41,10.35-10.64,15.48h0A1.09,1.09,0,0,0,22,92.2l4.15,3.54a1.07,1.07,0,0,0,1.41,0L40,84.81a1.13,1.13,0,0,1,.68-.27L51,84.21A1.08,1.08,0,0,0,52,83c-.22-1.89-.38-3.68-.47-5.37-.05-.76-.09-1.27-.08-1.84a1.07,1.07,0,0,0-.89-1.1l-1.73-.31c-2.78-.45-5.57-.84-8.38-1.12a10.73,10.73,0,0,0-8.18,2.19"/><path class="cls-2" d="M71.88,68l0,0,6.84,4.12a.05.05,0,0,1,0,0,.07.07,0,0,1,0,.07l-9,10.31a.06.06,0,0,1-.06,0l-14,.46a.08.08,0,0,1-.08-.07c-.29-2.4-.48-4.61-.56-6.59h.1c4.46,0,9.9-2.74,16.63-8.37l.06,0m0-1a1.13,1.13,0,0,0-.71.26q-9.7,8.14-16,8.14a9.51,9.51,0,0,1-1.08-.06h0a77.58,77.58,0,0,0,.6,7.78,1.08,1.08,0,0,0,1.07,1h0l14-.46a1.07,1.07,0,0,0,.78-.37l9-10.31a1.08,1.08,0,0,0-.26-1.64l-6.85-4.12a1.1,1.1,0,0,0-.55-.16Z"/><path class="cls-2" d="M59.47,60.54h.05l8.07,4.86a.1.1,0,0,1,0,.07.09.09,0,0,1,0,.07c-5.13,4.09-9.42,6.26-12.4,6.26h-.08c.3-5.58,1.66-9.29,4-11.05l.27-.2,0,0m0-1a1,1,0,0,0-.64.22l-.28.2c-3.4,2.52-4.32,8.05-4.47,12.76l.5.06c.2,0,.41,0,.62,0,4.07,0,9.25-3.47,13-6.48a1.09,1.09,0,0,0-.12-1.78L60,59.7a1,1,0,0,0-.56-.16Z"/><path class="cls-1" d="M51.5,72.22c.23-5.44,1.4-10.4,4.42-13.41a1.08,1.08,0,0,0-.19-1.7l-.57-.34a1.07,1.07,0,0,0-1.35.19c-.26.28-.52.56-.79.83L41.78,69a1.08,1.08,0,0,0,.63,1.84c3,.35,6.08.81,9.09,1.35"/><path class="cls-1" d="M51.18,21.79A22.38,22.38,0,0,0,37,15.28a1.6,1.6,0,0,0-1.72,1.6v4.33a1.59,1.59,0,0,0,1.43,1.59A15,15,0,0,1,50.18,36.31a1.59,1.59,0,0,0,1.59,1.43H56.1A1.61,1.61,0,0,0,57.7,36a22.49,22.49,0,0,0-6.52-14.22"/><path class="cls-2" d="M36.83,1h0A36.69,36.69,0,0,1,72,36.11a.58.58,0,0,1-.17.44.6.6,0,0,1-.44.19H66.94a.6.6,0,0,1-.59-.58A31.07,31.07,0,0,0,36.81,6.63a.6.6,0,0,1-.57-.6V1.61A.6.6,0,0,1,36.83,1m0-1a1.6,1.6,0,0,0-1.59,1.61V6a1.6,1.6,0,0,0,1.52,1.6A30.06,30.06,0,0,1,65.35,36.21a1.6,1.6,0,0,0,1.59,1.53h4.43A1.61,1.61,0,0,0,73,36.07,37.71,37.71,0,0,0,36.9,0Z"/><path class="cls-2" d="M26.61,18v6.25a16.36,16.36,0,0,0-3.8,3.4,16,16,0,0,0,23.77,21.4l.37-.39,0,0,0,0,.45-.58.06,0,.54-.72c.24-.31.46-.63.67-1H55a21.34,21.34,0,0,1-2,3.68,22.61,22.61,0,0,1-1.55,2C47.87,56,43.89,59.83,40,63.55c-1.59,1.53-3.22,3.11-4.8,4.67L23.66,56.65,20,53A21.63,21.63,0,0,1,20,22.5,21.18,21.18,0,0,1,26.61,18m0-1a1.14,1.14,0,0,0-.4.08,22.55,22.55,0,0,0-6.93,36.62L23,57.35,34.68,69.08a.8.8,0,0,0,.56.23.78.78,0,0,0,.55-.23c5.43-5.39,11.29-10.69,16.34-16.4a20.92,20.92,0,0,0,1.62-2.06,22.14,22.14,0,0,0,2.38-4.41.62.62,0,0,0-.59-.84h-7a.62.62,0,0,0-.53.29c-.23.36-.47.72-.73,1.06l0,0-1,1.28-.37.38A15,15,0,1,1,27.14,25.1a1,1,0,0,0,.47-.84V18a1,1,0,0,0-1-1Z"/><path class="cls-2" d="M35.24,33.29a4.46,4.46,0,1,1-4.45,4.46,4.46,4.46,0,0,1,4.45-4.46m0-1a5.46,5.46,0,1,0,5.46,5.46,5.45,5.45,0,0,0-5.46-5.46Z"/></g></g></svg>