<svg xmlns="http://www.w3.org/2000/svg" viewBox="0 0 111.9 40"><defs><style>.cls-1,.cls-3{fill:#2c2c2c;}.cls-2,.cls-4{fill:#ffad00;}.cls-3,.cls-4{fill-rule:evenodd;}</style></defs><g id="Layer_2" data-name="Layer 2"><g id="Layer_1-2" data-name="Layer 1"><path class="cls-1" d="M12,20.43h2.79a.44.44,0,0,1,.44.44V26a.47.47,0,0,1-.12.3,8.6,8.6,0,0,1-6.6,2.58,8.3,8.3,0,0,1-6-2.38,8,8,0,0,1-2.44-6,8.11,8.11,0,0,1,2.48-6,8.26,8.26,0,0,1,6-2.43,8.83,8.83,0,0,1,5.8,2,.44.44,0,0,1,.07.59L13,16.7a.44.44,0,0,1-.64.1,6.39,6.39,0,0,0-1.65-1,5.47,5.47,0,0,0-2-.36,4.75,4.75,0,0,0-3.49,1.41,5,5,0,0,0-1.43,3.72,5,5,0,0,0,1.37,3.69,4.38,4.38,0,0,0,3.25,1.39,6.42,6.42,0,0,0,2.91-.6.42.42,0,0,0,.24-.39V20.87A.44.44,0,0,1,12,20.43Z"/><path class="cls-1" d="M28.28,28.73H25.87a.44.44,0,0,1-.44-.44h0a.43.43,0,0,0-.71-.33,4,4,0,0,1-2.63,1,5,5,0,0,1-3.35-1.16,3.83,3.83,0,0,1-1.35-3.07,3.24,3.24,0,0,1,1.4-2.88,6.67,6.67,0,0,1,3.82-1h2.61v-.07c0-1.34-.7-2-2.12-2a5.78,5.78,0,0,0-1.92.36,6.31,6.31,0,0,0-1.38.66.42.42,0,0,1-.58-.13l-1.07-1.54a.44.44,0,0,1,.12-.61A9.32,9.32,0,0,1,23.55,16a5.86,5.86,0,0,1,3.73,1.14,4.33,4.33,0,0,1,1.44,3.61v7.56A.44.44,0,0,1,28.28,28.73ZM25.2,24v-.6H23c-1.4,0-2.1.43-2.1,1.3a1.21,1.21,0,0,0,.5,1,2.45,2.45,0,0,0,1.44.36,2.54,2.54,0,0,0,1.64-.57A1.87,1.87,0,0,0,25.2,24Z"/><path class="cls-1" d="M35,28.73H32.35a.44.44,0,0,1-.44-.44V11.87a.44.44,0,0,1,.44-.44H35a.44.44,0,0,1,.44.44V28.29A.44.44,0,0,1,35,28.73Z"/><path class="cls-1" d="M39,14.59a2.08,2.08,0,1,1,1.46.6A2,2,0,0,1,39,14.59Zm2.77,14.14H39.16a.44.44,0,0,1-.44-.44V16.63a.44.44,0,0,1,.44-.44h2.62a.44.44,0,0,1,.44.44V28.29A.44.44,0,0,1,41.78,28.73Z"/><path class="cls-2" d="M56.9,20.43h2.79a.44.44,0,0,1,.43.44V26a.42.42,0,0,1-.12.3,8.56,8.56,0,0,1-6.59,2.58,8.34,8.34,0,0,1-6-2.38,8.06,8.06,0,0,1-2.43-6,8.08,8.08,0,0,1,2.48-6,8.24,8.24,0,0,1,6-2.43,8.82,8.82,0,0,1,5.79,2,.44.44,0,0,1,.08.59l-1.38,2a.44.44,0,0,1-.64.1,6.43,6.43,0,0,0-1.66-1,5.41,5.41,0,0,0-2-.36,4.79,4.79,0,0,0-3.5,1.41,5,5,0,0,0-1.42,3.72,5,5,0,0,0,1.36,3.69,4.4,4.4,0,0,0,3.26,1.39,6.45,6.45,0,0,0,2.91-.6.41.41,0,0,0,.23-.39V20.87A.44.44,0,0,1,56.9,20.43Z"/><path class="cls-2" d="M75.56,22.46a6.19,6.19,0,0,1-1.89,4.59,7,7,0,0,1-9.49,0,6.19,6.19,0,0,1-1.89-4.59,6.22,6.22,0,0,1,1.89-4.6,6.93,6.93,0,0,1,9.49,0A6.22,6.22,0,0,1,75.56,22.46Zm-9.75,0A3.58,3.58,0,0,0,66.69,25a3.08,3.08,0,0,0,4.47,0A3.62,3.62,0,0,0,72,22.46a3.65,3.65,0,0,0-.88-2.52,3,3,0,0,0-4.47,0A3.6,3.6,0,0,0,65.81,22.46Z"/><path class="cls-3" d="M91,29.19l-3.13-3.13a.49.49,0,0,0-.33-.13l-4.4.07a.43.43,0,0,0-.32.14L79,30.25a.46.46,0,0,0,0,.66l1.43,1.22a.45.45,0,0,0,.55,0,15.49,15.49,0,0,1,6.59-2.86h0c1.11-.08,2.25-.11,3.41-.1"/><path class="cls-3" d="M91.87,30.29a40.29,40.29,0,0,0-4.14.08,14.1,14.1,0,0,0-5.68,2.38.45.45,0,0,0,0,.72l4.22,3.6a.45.45,0,0,0,.7-.15c1.45-3.19,3.09-5.4,4.94-6.63"/><path class="cls-3" d="M92.11,31.44c-2.06,1.57-3.51,4.31-4.43,6.45h0a.46.46,0,0,0,.12.53l1.72,1.47a.44.44,0,0,0,.59,0l5.22-4.55a.43.43,0,0,1,.28-.11l4.29-.14a.45.45,0,0,0,.43-.5c-.09-.79-.16-1.53-.2-2.24,0-.32,0-.53,0-.77a.45.45,0,0,0-.37-.46L99,31c-1.16-.19-2.32-.35-3.49-.47a4.49,4.49,0,0,0-3.41.91"/><path class="cls-3" d="M101.18,31.39a32.4,32.4,0,0,0,.24,3.24.45.45,0,0,0,.47.39l5.83-.19a.46.46,0,0,0,.33-.15l3.74-4.3a.44.44,0,0,0-.11-.68L108.83,28a.44.44,0,0,0-.52.05q-4.41,3.69-7.11,3.36Z"/><path class="cls-3" d="M101.39,30.33c1.73.16,4-1.37,5.69-2.69a.45.45,0,0,0,0-.74l-3.37-2a.46.46,0,0,0-.5,0l-.11.08c-1.42,1.05-1.8,3.36-1.87,5.32Z"/><path class="cls-3" d="M100.11,30.09c.09-2.26.58-4.33,1.84-5.58a.46.46,0,0,0-.08-.72l-.24-.14a.46.46,0,0,0-.56.08l-.33.35-4.68,4.68a.45.45,0,0,0,.26.77c1.27.14,2.53.34,3.79.56"/><path class="cls-4" d="M100,9.08a9.36,9.36,0,0,0-5.93-2.71.66.66,0,0,0-.72.66V8.84a.66.66,0,0,0,.6.66,6.16,6.16,0,0,1,3.82,1.8,6.27,6.27,0,0,1,1.81,3.83.65.65,0,0,0,.66.59H102a.67.67,0,0,0,.67-.72A9.34,9.34,0,0,0,100,9.08"/><path class="cls-4" d="M93.33,2.51a.67.67,0,0,0,.64.67,12.53,12.53,0,0,1,11.91,11.91.66.66,0,0,0,.66.63h1.85a.67.67,0,0,0,.67-.69A15.72,15.72,0,0,0,94,0a.67.67,0,0,0-.7.67Z"/><path class="cls-3" d="M97.75,20.15a6.25,6.25,0,0,1-9.27-8.37A6.35,6.35,0,0,1,90,10.46a.43.43,0,0,0,.2-.35V7.49a.42.42,0,0,0-.58-.38,9.28,9.28,0,0,0-2.89,2,9.42,9.42,0,0,0,0,13.29l1.52,1.53,4.89,4.88a.32.32,0,0,0,.46,0c2.27-2.24,4.71-4.45,6.81-6.83a9.16,9.16,0,0,0,.68-.86,9.54,9.54,0,0,0,1-1.83.26.26,0,0,0-.25-.36H98.87a.25.25,0,0,0-.22.13l-.31.44,0,0-.41.54Z"/><circle class="cls-2" cx="93.34" cy="15.73" r="2.27"/></g></g></svg>