<svg xmlns="http://www.w3.org/2000/svg" viewBox="0 0 65.55 60"><defs><style>.cls-1{fill:#fff;}</style></defs><g id="Layer_2" data-name="Layer 2"><g id="Layer_1-2" data-name="Layer 1"><path class="cls-1" d="M27.67,28.31A13.84,13.84,0,1,0,0,28.31C0,38.69,13.84,54,13.84,54S27.67,38.69,27.67,28.31Zm-18.77,0a4.94,4.94,0,1,1,4.94,4.94A4.94,4.94,0,0,1,8.9,28.31Z"/><path class="cls-1" d="M65.55,6.35a6.35,6.35,0,1,0-12.69,0c0,4.76,6.34,11.79,6.34,11.79S65.55,11.11,65.55,6.35Zm-8.61,0A2.27,2.27,0,1,1,59.2,8.61,2.27,2.27,0,0,1,56.94,6.35Z"/><path class="cls-1" d="M59.2,22.27a1.33,1.33,0,0,0-1.64-.91l-16,4.57a1.33,1.33,0,0,0-.75,2L50,42.52a1.31,1.31,0,0,1-.66,1.94l-34.72,13a1.33,1.33,0,0,0,.92,2.49L53.32,45.81a1.32,1.32,0,0,0,.66-2L45,29.49a1.32,1.32,0,0,1,.76-2l12.57-3.6a1.31,1.31,0,0,0,.91-1.64Z"/></g></g></svg>