<svg xmlns="http://www.w3.org/2000/svg" viewBox="0 0 36.49 60"><defs><style>.cls-1{fill:#fff;}</style></defs><g id="Layer_2" data-name="Layer 2"><g id="Layer_1-2" data-name="Layer 1"><path class="cls-1" d="M18.15,60H9.57C8,60,7.25,59.28,7.24,57.65c0-1.93,0-3.87,0-5.8a3,3,0,0,0-.85-2.2C4.41,47.44,2.45,45.22.48,43A1.89,1.89,0,0,1,0,42.22c-.13-.57.3-1,1-1,1.28,0,2.55,0,3.83,0A2.08,2.08,0,0,0,7.24,38.9c0-1.85,0-3.7,0-5.55a2.65,2.65,0,0,0-.74-1.9c-2-2.24-4-4.51-6-6.76-.33-.37-.66-.73-.41-1.28s.73-.55,1.23-.55c1.25,0,2.51,0,3.76,0a2,2,0,0,0,2.15-2.08c0-2.05,0-4.1,0-6.14a2.33,2.33,0,0,0-.59-1.34c-2-2.26-4-4.48-5.95-6.72C.55,6.43.36,6.3.31,6.12.2,5.77,0,5.32.15,5.06a1.23,1.23,0,0,1,1-.5c1.16-.06,2.33,0,3.49,0a2.4,2.4,0,0,0,2.65-2.4A3.43,3.43,0,0,1,7.55.94,1.77,1.77,0,0,1,9.18,0c6,0,12,0,18,0a2,2,0,0,1,2,1.93,5.05,5.05,0,0,0,.61,1.76,1.72,1.72,0,0,0,1.62.84c1.32,0,2.64,0,4,0,.47,0,.88,0,1.11.53a1,1,0,0,1-.3,1.19c-2,2.27-4,4.55-6.06,6.8a3.22,3.22,0,0,0-1,2.35c0,1.82,0,3.65,0,5.47a2,2,0,0,0,2,2c1.37,0,2.73,0,4.09,0,.48,0,.94,0,1.18.53s0,.88-.35,1.24C34,27,31.88,29.34,29.78,31.68a2.61,2.61,0,0,0-.71,1.85c0,1.81,0,3.61,0,5.41a2,2,0,0,0,2.2,2.23c1.39,0,2.77,0,4.16,0,.43,0,.88.06.94.51a1.61,1.61,0,0,1-.27,1.12c-1.14,1.37-2.35,2.68-3.53,4-.95,1.07-1.89,2.14-2.85,3.2a2.45,2.45,0,0,0-.66,1.74c0,1.91,0,3.83,0,5.74S28.39,60,26.59,60Zm0-19.32a8,8,0,1,0,8.06,8A8.09,8.09,0,0,0,18.12,40.68Zm0-2.21a8.05,8.05,0,1,0-8-8.08A8.06,8.06,0,0,0,18.12,38.47Zm0-34.42A8,8,0,1,0,26.2,12.1,8.11,8.11,0,0,0,18.14,4.05Z"/></g></g></svg>