<svg xmlns="http://www.w3.org/2000/svg" viewBox="0 0 60.28 60"><defs><style>.cls-1{fill:#fff;}</style></defs><g id="Layer_2" data-name="Layer 2"><g id="Layer_1-2" data-name="Layer 1"><path class="cls-1" d="M37.86,52h-.73c-4.65,0-9.31,0-14,0-.62,0-.79.17-.76.77.05,1,0,2,0,3a4.13,4.13,0,0,1-4,4.15c-1.43,0-2.86,0-4.28,0a4.11,4.11,0,0,1-4.06-4.12q0-1.66,0-3.33c0-.33-.09-.47-.44-.52a4.15,4.15,0,0,1-3.54-4c0-.13,0-.25,0-.38,0-11.76,0-23.52,0-35.28,0-5.24,2.54-9,7.25-11.26a10.94,10.94,0,0,1,4.82-1c8,0,16,0,24,0a12.06,12.06,0,0,1,12.1,12.2q0,17.73,0,35.47A4.13,4.13,0,0,1,50.63,52c-.4.07-.4.28-.4.57,0,1,0,2.09,0,3.14A4.13,4.13,0,0,1,46,60q-1.95,0-3.9,0a4.15,4.15,0,0,1-4.24-4.27ZM49.75,12.41H10.53V35.69H49.75ZM37.81,7.92V4.49H22.47V7.92ZM14.21,47.64a3.74,3.74,0,1,0-3.72-3.75A3.79,3.79,0,0,0,14.21,47.64Zm31.82,0a3.74,3.74,0,1,0-3.74-3.72A3.79,3.79,0,0,0,46,47.64Z"/><path class="cls-1" d="M4.38,28.21c-.87,0-1.71.05-2.54,0a2.05,2.05,0,0,1-1.81-2Q0,22.06,0,17.94a2.08,2.08,0,0,1,2.13-2H4.38Z"/><path class="cls-1" d="M55.9,15.92c.89,0,1.75-.05,2.6,0a2,2,0,0,1,1.75,2c0,2.75,0,5.49,0,8.23a2.08,2.08,0,0,1-2.13,2c-.72,0-1.45,0-2.22,0Z"/></g></g></svg>