<svg xmlns="http://www.w3.org/2000/svg" viewBox="0 0 67.53 60"><defs><style>.cls-1{fill:#fff;}</style></defs><g id="Layer_2" data-name="Layer 2"><g id="Layer_1-2" data-name="Layer 1"><path class="cls-1" d="M58.77,42.29l-.83-.87-2.81-7.58a3.19,3.19,0,0,0-3-2.06H32.08a3.18,3.18,0,0,0-3,2.06l-2.78,7.49-1.18,1.08a4.4,4.4,0,0,0-1.57,3.36V59.29a.74.74,0,0,0,.73.71h7a.71.71,0,0,0,.69-.71V55.17H51.7v4.12a.71.71,0,0,0,.69.71h7a.75.75,0,0,0,.73-.71V45.48A4.43,4.43,0,0,0,58.77,42.29Zm-28.38-8a1.79,1.79,0,0,1,1.69-1.15H52.15a1.77,1.77,0,0,1,1.68,1.15L56.32,41H27.9Zm.25,24.31H25V55.17h5.69Zm28.14,0h-5.7V55.17h5.7Zm0-4.83H25v-8A3.09,3.09,0,0,1,26,43.45l0,0,1.1-1H57l.78.84s0,0,.05,0a3.07,3.07,0,0,1,1,2.21Z"/><path class="cls-1" d="M30.58,45.76H30a2.72,2.72,0,0,0,0,5.44h.61a2.72,2.72,0,1,0,0-5.44Zm0,4.06H30a1.34,1.34,0,0,1,0-2.68h.61a1.34,1.34,0,1,1,0,2.68Z"/><path class="cls-1" d="M53.75,45.76h-.61a2.72,2.72,0,0,0,0,5.44h.61a2.72,2.72,0,0,0,0-5.44Zm0,4.06h-.61a1.34,1.34,0,0,1,0-2.68h.61a1.34,1.34,0,1,1,0,2.68Z"/><path class="cls-1" d="M47.22,45.76H36.51a.69.69,0,0,0-.69.69v4a.69.69,0,0,0,.69.69H47.22a.69.69,0,0,0,.69-.69v-4A.69.69,0,0,0,47.22,45.76Zm-.7,4H37.2V47.14h9.32Z"/><path class="cls-1" d="M66.14,10.51l-.83-.87L62.49,2.06a3.18,3.18,0,0,0-3-2.06H39.44a3.19,3.19,0,0,0-3,2.06l-2.78,7.5L32.5,10.63a4.42,4.42,0,0,0-1.56,3.18,3.07,3.07,0,0,1,1.37.9V14a3.06,3.06,0,0,1,1.1-2.32l0,0,1.1-1h29.8l.78.84,0,0a3.07,3.07,0,0,1,1,2.22V22H35.26l.47,1.28.1.1H38v3.45h-.09a4.36,4.36,0,0,1,0,.51v.87h.76a.71.71,0,0,0,.68-.71V23.39H59.07v4.12a.7.7,0,0,0,.68.71h7a.75.75,0,0,0,.74-.71V13.71A4.49,4.49,0,0,0,66.14,10.51ZM35.27,9.23l2.49-6.7a1.77,1.77,0,0,1,1.68-1.15H59.51A1.79,1.79,0,0,1,61.2,2.53l2.49,6.7ZM66.14,26.84H60.45V23.39h5.69Z"/><path class="cls-1" d="M6.41,29.14a2.72,2.72,0,0,0,0,5.44H7a2.72,2.72,0,0,0,0-5.44Zm1.94,2.72A1.34,1.34,0,0,1,7,33.2H6.41a1.34,1.34,0,1,1,0-2.68H7A1.34,1.34,0,0,1,8.35,31.86Z"/><path class="cls-1" d="M13,29.14a.69.69,0,0,0-.69.69v4a.69.69,0,0,0,.69.69h10.7a.69.69,0,0,0,.69-.69v-4a.69.69,0,0,0-.69-.69Zm10,4H13.64V30.52H23Z"/><path class="cls-1" d="M26.23,37.28v-.11H1.38v-8a3.09,3.09,0,0,1,1.09-2.32l0,0,1.1-1h29.8l.78.84.05,0a3.11,3.11,0,0,1,1,2.22v1.37h1.38V28.87a4.45,4.45,0,0,0-1.39-3.2l-.83-.87-2.81-7.58a3.18,3.18,0,0,0-3-2.06H8.51a3.18,3.18,0,0,0-3,2.06l-2.78,7.5L1.57,25.79A4.45,4.45,0,0,0,0,29.15V42.67a.75.75,0,0,0,.73.71h7a.71.71,0,0,0,.69-.71V38.55h17.3ZM6.83,17.69a1.76,1.76,0,0,1,1.68-1.15H28.58a1.76,1.76,0,0,1,1.68,1.15l2.5,6.7H4.33ZM7.08,42H1.38V38.55h5.7Z"/><path class="cls-1" d="M37.47,19.18h.61a2.72,2.72,0,1,0,0-5.43h-.61a2.72,2.72,0,1,0,0,5.43Zm0-4h.61a1.34,1.34,0,1,1,0,2.67h-.61a1.34,1.34,0,1,1,0-2.67Z"/><path class="cls-1" d="M61.25,19.18a2.72,2.72,0,1,0,0-5.43h-.61a2.72,2.72,0,1,0,0,5.43Zm-2-2.71a1.34,1.34,0,0,1,1.34-1.34h.61a1.34,1.34,0,1,1,0,2.67h-.61A1.34,1.34,0,0,1,59.3,16.47Z"/><path class="cls-1" d="M54.71,19.1a.69.69,0,0,0,.69-.69v-4a.69.69,0,0,0-.69-.69H44a.69.69,0,0,0-.69.69v4a.69.69,0,0,0,.69.69Zm-10-4H54v2.59H44.7Z"/></g></g></svg>