<svg xmlns="http://www.w3.org/2000/svg" viewBox="0 0 83.33 60"><defs><style>.cls-1{fill:#fff;}</style></defs><g id="Layer_2" data-name="Layer 2"><g id="Layer_1-2" data-name="Layer 1"><path class="cls-1" d="M34.93,48.28H51.61V36.73H3.41c0,2.49-.17,5,0,7.41a4.78,4.78,0,0,0,4.69,4.17c1.19.06,1.92.76,1.87,1.77a1.72,1.72,0,0,1-2,1.58,8.33,8.33,0,0,1-8-8.28c0-9.55,0-19.1,0-28.66,0-2.13,0-4.27,0-6.41A8.3,8.3,0,0,1,8.34,0H46.67A8.27,8.27,0,0,1,55,8.31c0,2.19,0,4.37,0,6.68h1c4.5,0,9,0,13.5,0a2.5,2.5,0,0,1,2.19,1.07c3.72,4.81,7.47,9.6,11.18,14.41a2.68,2.68,0,0,1,.49,1.45c0,5.94,0,11.88,0,17.82a1.69,1.69,0,0,1-1.95,1.92H76.55A10.18,10.18,0,0,1,72,58.37a9.71,9.71,0,0,1-5.78,1.56,10.12,10.12,0,0,1-9.49-8.23H34.89a10.15,10.15,0,0,1-5.37,7.2,9.72,9.72,0,0,1-6.72.85,10,10,0,0,1,.86-19.68A10.14,10.14,0,0,1,34.93,48.28Zm16.73-15v-1q0-11.75,0-23.49a5,5,0,0,0-5.4-5.41H8.77c-3.36,0-5.42,2-5.42,5.37q0,11.84,0,23.66v.91Zm3.41-14.95V48.27h1.7a10.06,10.06,0,0,1,19.79,0h3.38c0-.18,0-.28,0-.39,0-5,0-10.11,0-15.16a1.68,1.68,0,0,0-.38-1c-3.08-4-6.23-7.95-9.27-12a3.18,3.18,0,0,0-2.94-1.47C63.31,18.4,59.23,18.34,55.07,18.34Zm11.6,38.3A6.66,6.66,0,1,0,60,50,6.63,6.63,0,0,0,66.67,56.64ZM31.66,50a6.66,6.66,0,1,0-6.73,6.7A6.66,6.66,0,0,0,31.66,50Z"/><path class="cls-1" d="M67.52,35H60.28c-1.33,0-1.94-.61-1.94-1.93q0-4.74,0-9.48a1.68,1.68,0,0,1,1.88-1.91c2.07,0,4.16-.06,6.23,0A2.44,2.44,0,0,1,68,22.4c2.77,3.24,5.49,6.54,8.22,9.82A1.57,1.57,0,0,1,76.51,34a1.61,1.61,0,0,1-1.59,1h-7.4Zm3.74-3.36a1.15,1.15,0,0,0-.12-.31l-5-6c-.11-.12-.26-.28-.38-.29-1.35,0-2.69,0-4,0v6.61Z"/></g></g></svg>