<svg xmlns="http://www.w3.org/2000/svg" viewBox="0 0 68.27 60"><defs><style>.cls-1{fill:#fff;}</style></defs><g id="Layer_2" data-name="Layer 2"><g id="Layer_1-2" data-name="Layer 1"><path class="cls-1" d="M67.44,51.08h0L39.12,2.89a5.75,5.75,0,0,0-10,0L.83,51.08a5.9,5.9,0,0,0,0,6,5.71,5.71,0,0,0,5,2.93H62.46a5.75,5.75,0,0,0,5-2.93A5.92,5.92,0,0,0,67.44,51.08ZM65.61,56a3.62,3.62,0,0,1-3.15,1.84H5.81A3.57,3.57,0,0,1,2.67,56a3.78,3.78,0,0,1,0-3.83L31,4a3.69,3.69,0,0,1,1.33-1.33,3.62,3.62,0,0,1,1.78-.47,3.87,3.87,0,0,1,.95.12A3.61,3.61,0,0,1,37.26,4l28.32,48.2h0A3.8,3.8,0,0,1,65.61,56Z"/><path class="cls-1" d="M30.78,36.31a3.36,3.36,0,0,0,3.06,3h.29a3.34,3.34,0,0,0,3.34-3l1.45-14.49a4.27,4.27,0,0,0,0-1,4.82,4.82,0,0,0-9.58,1Zm3.07-17.63h.28a2.66,2.66,0,0,1,2.65,2.38,2.62,2.62,0,0,1,0,.56L35.33,36.12a1.21,1.21,0,0,1-2.4,0L31.48,21.61A2.68,2.68,0,0,1,33.85,18.68Z"/><path class="cls-1" d="M34.14,41.32a5.21,5.21,0,1,0,5.21,5.21A5.22,5.22,0,0,0,34.14,41.32Zm0,8.26a3,3,0,1,1,3-3A3.06,3.06,0,0,1,34.14,49.58Z"/></g></g></svg>