<svg xmlns="http://www.w3.org/2000/svg" viewBox="0 0 320 572.59"><defs><style>.cls-1{fill:#2c2c2c;}.cls-2{fill:#ffad00;}</style></defs><g id="Layer_2" data-name="Layer 2"><g id="Layer_1-2" data-name="Layer 1"><path class="cls-1" d="M53.84,71.5v3.93A21.64,21.64,0,0,0,75.47,53.81H71.53A17.69,17.69,0,0,1,53.84,71.5Z"/><path class="cls-1" d="M53.84,67.57A13.77,13.77,0,0,0,67.6,53.81H63.67a9.83,9.83,0,0,1-9.83,9.83Z"/><path class="cls-1" d="M53.84,53.81v5.9a5.89,5.89,0,0,0,5.9-5.9Z"/><path class="cls-1" d="M41.2,28.17a1.81,1.81,0,0,0-1.89-.43l-5.74,2a1.87,1.87,0,0,0-.68.43l-2.5,2.5a1.78,1.78,0,0,0-.43.69l-2,5.7A1.83,1.83,0,0,0,28.38,41L39.14,51.75a1.82,1.82,0,0,0,1.29.54,1.87,1.87,0,0,0,.61-.11l5.73-2a1.68,1.68,0,0,0,.68-.43L50,47.21a1.91,1.91,0,0,0,.43-.69l2-5.7A1.79,1.79,0,0,0,52,38.93Zm5.89,16.75-1.92,1.93L40.9,48.36l-9.13-9.13L33.25,35l1.93-1.93,4.26-1.51,9.14,9.13Z"/><path class="cls-1" d="M79.47,12.68,67.32.53A1.83,1.83,0,0,0,64.84.44L43.55,18.86a1.83,1.83,0,0,0-.29,2.43l5.32,7.56-2,2A1.82,1.82,0,0,0,47.87,34a1.78,1.78,0,0,0,1.28-.53l2-2,7.56,5.32a1.8,1.8,0,0,0,1,.34,1.84,1.84,0,0,0,1.38-.63L79.56,15.16A1.83,1.83,0,0,0,79.47,12.68Zm-20,20.14-7.2-5.08-5.08-7.2L65.94,4.31l9.75,9.75Z"/><path class="cls-1" d="M31.42,51.15l2-2a1.82,1.82,0,1,0-2.57-2.57l-2,2-7.56-5.32a1.83,1.83,0,0,0-2.43.29L.44,64.84a1.83,1.83,0,0,0,.09,2.48L12.68,79.47A1.82,1.82,0,0,0,14,80a1.87,1.87,0,0,0,1.19-.44L36.45,61.14a1.83,1.83,0,0,0,.29-2.43ZM14.06,75.69,4.31,65.94,20.54,47.18l7.2,5.08,5.08,7.2Z"/><path class="cls-1" d="M193.42,6.66H126.58A6.59,6.59,0,0,0,120,13.24V22a6.63,6.63,0,0,0,6.34,6.58l23,5.07a2.2,2.2,0,0,0,.44,0H158v5.61l-2.53,2.42A1.59,1.59,0,0,0,155,42.9v4.54a1.49,1.49,0,0,0,.07.47H133.66a5.05,5.05,0,1,0,0,10.1h4.15v6.74l-2.08,2a1.5,1.5,0,0,0-.46,1.07v4a1.5,1.5,0,0,0,1.5,1.49h6.13a1.49,1.49,0,0,0,1.49-1.49v-4a1.54,1.54,0,0,0-.46-1.08l-2.07-2V58h36.28v6.74l-2.07,2a1.5,1.5,0,0,0-.46,1.07v4a1.49,1.49,0,0,0,1.49,1.49h6.13a1.5,1.5,0,0,0,1.5-1.49v-4a1.54,1.54,0,0,0-.46-1.08l-2.08-2V58h4.15a5.05,5.05,0,0,0,0-10.1H165a1.84,1.84,0,0,0,.07-.47V42.9a1.6,1.6,0,0,0-.49-1.16L162,39.33V33.72h31.39A6.59,6.59,0,0,0,200,27.13V13.24A6.59,6.59,0,0,0,193.42,6.66Zm-69.37,6.58a2.53,2.53,0,0,1,2.53-2.53h66.84A2.53,2.53,0,0,1,196,13.24V27.13a2.53,2.53,0,0,1-2.53,2.53H150L127,24.6a2.2,2.2,0,0,0-.44-.05A2.54,2.54,0,0,1,124.05,22Z"/><path class="cls-1" d="M172.6,24.51a4.29,4.29,0,1,0-4.29-4.28A4.29,4.29,0,0,0,172.6,24.51Z"/><path class="cls-1" d="M131.56,20.93l17.93,3.77a2,2,0,0,0,.49.05,2.06,2.06,0,0,0,2.07-2.08v-6A2.08,2.08,0,0,0,150,14.59H132A2.08,2.08,0,0,0,130,16.67v2.24A2.06,2.06,0,0,0,131.56,20.93Z"/><path class="cls-1" d="M290,10H270a10,10,0,0,0-10,10V60a10,10,0,0,0,10,10h20a10,10,0,0,0,10-10V20a10,10,0,0,0-10-10Zm5,50a5,5,0,0,1-5,5H270a5,5,0,0,1-5-5V20a5,5,0,0,1,5-5h20a5,5,0,0,1,5,5Z"/><path class="cls-1" d="M249.31,22.74a2.5,2.5,0,0,0-.09-1,2.53,2.53,0,0,0-.47-.85,2.28,2.28,0,0,0-.76-.62,2.51,2.51,0,0,0-.93-.28,2.44,2.44,0,0,0-1,.1,2.55,2.55,0,0,0-.86.46,2.69,2.69,0,0,0-.62.76,40.11,40.11,0,0,0,0,37.34,2.56,2.56,0,0,0,1.48,1.22,2.52,2.52,0,0,0,3.13-1.65,2.54,2.54,0,0,0-.18-1.91,35,35,0,0,1,0-32.66A2.55,2.55,0,0,0,249.31,22.74Z"/><path class="cls-1" d="M280,50a5,5,0,1,0,3.54,1.46A5,5,0,0,0,280,50Z"/><path class="cls-1" d="M255,40a25,25,0,0,1,1.7-9.09,2.64,2.64,0,0,0,.18-1,2.5,2.5,0,0,0-.77-1.75,2.49,2.49,0,0,0-4.06.89,30.06,30.06,0,0,0,0,21.82,2.6,2.6,0,0,0,.5.87,2.52,2.52,0,0,0,.81.6,2.4,2.4,0,0,0,1,.24,2.5,2.5,0,0,0,2.36-3.53A24.9,24.9,0,0,1,255,40Z"/><path class="cls-1" d="M307.43,28.27a2.46,2.46,0,0,0-.8-.56,2.62,2.62,0,0,0-.95-.21,2.5,2.5,0,0,0-2.38,3.41,25.15,25.15,0,0,1,0,18.18,2.52,2.52,0,0,0,.11,1.85,2.47,2.47,0,0,0,1.35,1.27,2.5,2.5,0,0,0,3.19-1.3,30.06,30.06,0,0,0,0-21.82A2.21,2.21,0,0,0,307.43,28.27Z"/><path class="cls-1" d="M315.38,21.33a2.5,2.5,0,0,0-.61-.76,2.55,2.55,0,0,0-.86-.46,2.44,2.44,0,0,0-1-.1,2.62,2.62,0,0,0-.94.28,2.35,2.35,0,0,0-.75.62,2.53,2.53,0,0,0-.47.85,2.5,2.5,0,0,0-.09,1,2.55,2.55,0,0,0,.27.93,35,35,0,0,1,0,32.66,2.5,2.5,0,0,0,3,3.56,2.51,2.51,0,0,0,1.47-1.22,40,40,0,0,0,0-37.34Z"/><path class="cls-2" d="M280,88a2,2,0,0,0-2,2v40c0,.73-.2,18-18,18H210c-21.75,0-22,21.78-22,22v35.17l-6.59-6.58a2,2,0,0,0-2.82,2.82l10,10a1.79,1.79,0,0,0,.31.25.83.83,0,0,0,.16.09l.19.1.2.06.17.05a1.92,1.92,0,0,0,.78,0l.17-.05.2-.06.19-.1a.83.83,0,0,0,.16-.09,1.79,1.79,0,0,0,.31-.25l10-10a2,2,0,0,0-2.82-2.82L192,205.17V170c0-.73.2-18,18-18h50c21.75,0,22-21.78,22-22V90A2,2,0,0,0,280,88Z"/><path class="cls-2" d="M138.59,198.59,132,205.17V170c0-.22-.25-22-22-22H60c-17.72,0-18-17.27-18-18V90a2,2,0,0,0-4,0v40c0,.22.25,22,22,22h50c17.72,0,18,17.27,18,18v35.17l-6.59-6.58a2,2,0,0,0-2.82,2.82l10,10a1.79,1.79,0,0,0,.31.25.83.83,0,0,0,.16.09l.19.1.2.06.17.05a1.92,1.92,0,0,0,.78,0l.17-.05.2-.06.19-.1a.83.83,0,0,0,.16-.09,1.79,1.79,0,0,0,.31-.25l10-10a2,2,0,0,0-2.82-2.82Z"/><path class="cls-2" d="M168.59,198.59,162,205.17V90a2,2,0,0,0-4,0V205.17l-6.59-6.58a2,2,0,0,0-2.82,2.82l10,10a1.79,1.79,0,0,0,.31.25.83.83,0,0,0,.16.09l.19.1.2.06.17.05a1.92,1.92,0,0,0,.78,0l.17-.05.2-.06.19-.1a.83.83,0,0,0,.16-.09,1.79,1.79,0,0,0,.31-.25l10-10a2,2,0,0,0-2.82-2.82Z"/><path class="cls-1" d="M148.75,250a1.87,1.87,0,0,1,1.87,1.87v5.63h3.75v-5.63a1.88,1.88,0,0,1,3.75,0v5.63h3.75v-5.63a1.88,1.88,0,0,1,3.75,0v5.63h3.75v-5.63a1.88,1.88,0,0,1,3.75,0v5.63a9.38,9.38,0,0,1,9.38,9.37h5.62a1.88,1.88,0,1,1,0,3.75H182.5v3.75h5.62a1.88,1.88,0,1,1,0,3.75H182.5v3.75h5.62a1.88,1.88,0,1,1,0,3.75H182.5v3.75h5.62a1.88,1.88,0,1,1,0,3.75H182.5a9.38,9.38,0,0,1-9.38,9.38v5.62a1.88,1.88,0,1,1-3.75,0V302.5h-3.75v5.62a1.88,1.88,0,1,1-3.75,0V302.5h-3.75v5.62a1.88,1.88,0,1,1-3.75,0V302.5h-3.75v5.62a1.88,1.88,0,1,1-3.75,0V302.5a9.38,9.38,0,0,1-9.37-9.38h-5.63a1.88,1.88,0,0,1,0-3.75h5.63v-3.75h-5.63a1.88,1.88,0,0,1,0-3.75h5.63v-3.75h-5.63a1.88,1.88,0,0,1,0-3.75h5.63v-3.75h-5.63a1.88,1.88,0,0,1,0-3.75h5.63a9.38,9.38,0,0,1,9.37-9.37v-5.63A1.88,1.88,0,0,1,148.75,250Zm-1.88,11.25a5.62,5.62,0,0,0-5.62,5.62v26.25a5.63,5.63,0,0,0,5.62,5.63h26.25a5.63,5.63,0,0,0,5.63-5.63V266.87a5.63,5.63,0,0,0-5.63-5.62Zm1.88,13.12a5.62,5.62,0,0,1,5.62-5.62h11.25a5.63,5.63,0,0,1,5.63,5.62v11.25a5.63,5.63,0,0,1-5.63,5.63H154.37a5.63,5.63,0,0,1-5.62-5.63Zm5.62-1.87a1.87,1.87,0,0,0-1.87,1.87v11.25a1.88,1.88,0,0,0,1.87,1.88h11.25a1.88,1.88,0,0,0,1.88-1.88V274.37a1.88,1.88,0,0,0-1.88-1.87Z"/><path class="cls-1" d="M213.57,278.5h-3.72V275a45.28,45.28,0,0,0-14.57-33.18A51.1,51.1,0,0,0,160,228a54.73,54.73,0,0,0-31.6,10.15v-.23l-3.29,2.76c-8.57,7.19-13.89,16.53-13.89,24.38v3.18l-3.3.35C90.86,270.4,78,284,78,300.2c0,17.53,15.15,31.8,33.78,31.8H138v36H120a2,2,0,0,0-1.85,1.23,2,2,0,0,0,.44,2.18l40,40a2,2,0,0,0,2.82,0l40-40a2,2,0,0,0,.44-2.18A2,2,0,0,0,200,368H182V332h31.57c15.67,0,28.43-12,28.43-26.74S229.24,278.5,213.57,278.5ZM180,372h15.17L160,407.17,124.83,372H140a2,2,0,0,0,2-2V332h36v38A2,2,0,0,0,180,372Zm33.57-44H111.78C95.36,328,82,315.53,82,300.2c0-14.15,11.32-26,26.34-27.63l3.46-.37a3.8,3.8,0,0,0,3.41-3.76v-3.38c0-6.5,4.49-14.38,11.78-20.73l.68-.58A50.74,50.74,0,0,1,160,232a47.07,47.07,0,0,1,32.53,12.68,41.3,41.3,0,0,1,13.32,30.26v3.78a3.81,3.81,0,0,0,3.83,3.78h3.89C227,282.5,238,292.71,238,305.26S227,328,213.57,328Z"/><path class="cls-2" d="M160,368.91a6.09,6.09,0,1,0,6.09,6.09A6.09,6.09,0,0,0,160,368.91Zm0,10.3a4.21,4.21,0,1,1,4.21-4.21A4.2,4.2,0,0,1,160,379.21Z"/><path class="cls-2" d="M172.48,371.63l-.6-.17a1.64,1.64,0,0,1-1.1-2,1.27,1.27,0,0,1,.13-.32l.3-.54a3.52,3.52,0,0,0-4.77-4.77l-.54.3a1.64,1.64,0,0,1-2.22-.65,2.22,2.22,0,0,1-.14-.32l-.17-.6a3.51,3.51,0,0,0-6.74,0l-.17.6a1.64,1.64,0,0,1-2,1.1,1.27,1.27,0,0,1-.32-.13l-.54-.3a3.52,3.52,0,0,0-4.77,4.77l.3.54a1.64,1.64,0,0,1-.65,2.22,2.22,2.22,0,0,1-.32.14l-.6.17a3.51,3.51,0,0,0,0,6.74l.6.17a1.64,1.64,0,0,1,1.1,2,1.27,1.27,0,0,1-.13.32l-.3.54a3.52,3.52,0,0,0,4.77,4.77l.54-.3a1.64,1.64,0,0,1,2.22.65,2.22,2.22,0,0,1,.14.32l.17.6a3.51,3.51,0,0,0,6.74,0l.17-.6a1.64,1.64,0,0,1,2-1.1,1.27,1.27,0,0,1,.32.13l.54.3a3.52,3.52,0,0,0,4.77-4.77l-.3-.54a1.64,1.64,0,0,1,.65-2.22,2.22,2.22,0,0,1,.32-.14l.6-.17A3.51,3.51,0,0,0,172.48,371.63Zm-.53,4.94-.6.18a3.5,3.5,0,0,0-2.37,4.36,3.44,3.44,0,0,0,.28.69l.3.54a1.64,1.64,0,0,1-2.22,2.22l-.55-.3a3.52,3.52,0,0,0-4.76,1.41,3.44,3.44,0,0,0-.28.69l-.18.59a1.64,1.64,0,0,1-3.14,0l-.18-.6a3.5,3.5,0,0,0-4.36-2.37,3.44,3.44,0,0,0-.69.28l-.54.3a1.64,1.64,0,0,1-2.22-2.22l.3-.54a3.51,3.51,0,0,0-1.41-4.77,3.44,3.44,0,0,0-.69-.28l-.59-.18a1.64,1.64,0,0,1,0-3.14l.6-.18a3.5,3.5,0,0,0,2.37-4.36,3.14,3.14,0,0,0-.28-.68l-.3-.55a1.64,1.64,0,0,1,2.22-2.22l.54.3a3.52,3.52,0,0,0,4.77-1.4,3.48,3.48,0,0,0,.29-.69l.17-.6a1.64,1.64,0,0,1,3.14,0l.18.6a3.51,3.51,0,0,0,4.36,2.37,3.14,3.14,0,0,0,.68-.28l.55-.3a1.64,1.64,0,0,1,2.22,2.22l-.3.55a3.51,3.51,0,0,0,1.41,4.76,3.61,3.61,0,0,0,.68.28l.6.18A1.64,1.64,0,0,1,172,376.57Z"/><path class="cls-2" d="M165,345.94a4.06,4.06,0,1,0,4.06,4.06A4.06,4.06,0,0,0,165,345.94Zm0,6.87a2.81,2.81,0,1,1,2.81-2.81A2.81,2.81,0,0,1,165,352.81Z"/><path class="cls-2" d="M173.32,347.75l-.4-.11a1.1,1.1,0,0,1-.74-1.36l.09-.21.2-.37a2.33,2.33,0,0,0-3.17-3.17l-.37.2a1.09,1.09,0,0,1-1.48-.44,1,1,0,0,1-.09-.21l-.11-.4a2.35,2.35,0,0,0-4.5,0l-.11.4a1.1,1.1,0,0,1-1.36.74l-.21-.09-.37-.2a2.33,2.33,0,0,0-3.17,3.17l.2.37a1.09,1.09,0,0,1-.44,1.48l-.21.09-.4.11a2.35,2.35,0,0,0,0,4.5l.4.11a1.1,1.1,0,0,1,.74,1.36l-.09.21-.2.37a2.33,2.33,0,0,0,3.17,3.17l.37-.2a1.09,1.09,0,0,1,1.48.44,1,1,0,0,1,.09.21l.11.4a2.35,2.35,0,0,0,4.5,0l.11-.4a1.1,1.1,0,0,1,1.36-.74l.21.09.37.2a2.33,2.33,0,0,0,3.17-3.17l-.2-.37a1.09,1.09,0,0,1,.44-1.48l.21-.09.4-.11A2.35,2.35,0,0,0,173.32,347.75Zm-.35,3.3-.4.11a2.34,2.34,0,0,0-1.58,2.91,2,2,0,0,0,.19.46l.2.36a1.1,1.1,0,0,1-1.49,1.48l-.36-.19a2.35,2.35,0,0,0-3.18.93,2.62,2.62,0,0,0-.19.46l-.11.4a1.1,1.1,0,0,1-2.1,0l-.11-.4a2.34,2.34,0,0,0-2.91-1.58,2,2,0,0,0-.46.19l-.36.2a1.1,1.1,0,0,1-1.48-1.49l.19-.36a2.35,2.35,0,0,0-.93-3.18,2.62,2.62,0,0,0-.46-.19l-.4-.11a1.1,1.1,0,0,1,0-2.1l.4-.11a2.34,2.34,0,0,0,1.58-2.91,2,2,0,0,0-.19-.46l-.2-.36a1.1,1.1,0,0,1,1.49-1.48l.36.19a2.34,2.34,0,0,0,3.18-.93,2.62,2.62,0,0,0,.19-.46l.11-.4a1.1,1.1,0,0,1,2.1,0l.12.4a2.33,2.33,0,0,0,2.9,1.58,2,2,0,0,0,.46-.19l.36-.2a1.1,1.1,0,0,1,1.48,1.49l-.19.36a2.35,2.35,0,0,0,.93,3.18,2.62,2.62,0,0,0,.46.19l.4.11A1.1,1.1,0,0,1,173,351.05Z"/><path class="cls-1" d="M211.43,459.09H187.07a62.64,62.64,0,0,1-13.11,12,2.92,2.92,0,0,1-3.16,0,62.66,62.66,0,0,1-12.86-12H133.19L172.3,476Z"/><polygon class="cls-1" points="221.08 482.11 219.24 476.99 214.21 479.15 221.08 482.11"/><polygon class="cls-1" points="147.64 486.64 102.92 467.31 95.64 487.66 120.41 498.37 147.64 486.64"/><path class="cls-1" d="M143,506.4a3,3,0,0,1,1.79-2.69l43.4-18.63a2.9,2.9,0,0,1,2.31,0l36.59,15.79-3.81-10.09L205.23,483a2.92,2.92,0,0,1,0-5.38l11.7-5-2.63-7.4L173.09,483a2.89,2.89,0,0,1-2.34,0L118,460.22H105.44l-1,2.72,51.32,22.14a2.92,2.92,0,0,1,0,5.38l-34.59,14.92a3,3,0,0,1-2.34,0L93.31,494.32l-2.66,7.4,13.27,5.7a2.92,2.92,0,0,1,0,5.38l-20.47,8.78L80,531.75l47.64-20.47a3,3,0,0,1,2.34,0l58,25h19.75l-63-27.17A2.93,2.93,0,0,1,143,506.4Z"/><polygon class="cls-1" points="230.09 507.29 189.61 489.83 153.72 505.27 222.89 535.13 240 535.13 230.09 507.29"/><path class="cls-1" d="M84.65,535.13h31.93l9.89-10.76a2.92,2.92,0,0,1,4.33,0l9.88,10.76h32.93L129.1,515.91Z"/><polygon class="cls-1" points="89.06 506.12 86.61 512.93 95.73 508.98 89.06 506.12"/><path class="cls-2" d="M137.32,540.1l-8.19-8.79a.8.8,0,0,0-1.17,0l-8.19,8.79L91.24,571.28a.78.78,0,0,0,.88,1.25l35.37-15a2.91,2.91,0,0,1,2.28,0l35.35,15a.79.79,0,0,0,.89-1.26l-28.66-31.13Z"/><path class="cls-2" d="M184.9,442.6a12.6,12.6,0,1,0-25.2,0c0,8.2,9.48,19.79,12,22.71a.77.77,0,0,0,1.2,0C175.41,462.39,184.9,450.8,184.9,442.6Zm-17,1a4.51,4.51,0,1,1,3.36,3.36A4.51,4.51,0,0,1,167.91,443.63Z"/></g></g></svg>