<svg xmlns="http://www.w3.org/2000/svg" viewBox="0 0 48 60"><defs><style>.cls-1{fill:#fff;}</style></defs><g id="Layer_2" data-name="Layer 2"><g id="Layer_1-2" data-name="Layer 1"><path class="cls-1" d="M43.54,6.88C33.61,1.94,20,3.13,12.55,9.73c-4.58,4.09-8,9.05-8.77,15.34-.85,6.7,1.88,12.2,6.05,17.45.65-3.27,1.09-6.24,1.85-9.14A37.23,37.23,0,0,1,26.47,12.17c.59-.42,1.18-.8,1.8-1.17,1.08-.65,2.25-.95,3,.33s.15,2.22-1.09,3A32.56,32.56,0,0,0,16.79,30.1c-2.66,6.4-3.26,13.17-3.1,20a61.64,61.64,0,0,0,.67,7c.18,1.37.13,2.54-1.46,2.8s-2-.71-2.17-2c-.26-2.63-.45-5.28-.86-7.88a6.29,6.29,0,0,0-1.32-3.13C3.49,41.42,0,35.27,0,27.55,0,16.27,8.52,4.8,19.63,1.52,28.55-1.11,37.32-.23,45.82,3.45c2.57,1.12,2.7,1.83,1.27,4.27-2.58,4.36-2.93,9.36-4,14.16-1.05,4.57-2,9.3-3.88,13.54-3.94,8.65-11.66,12.15-20.63,13.36-1.31.19-2.49-.41-2.41-1.73a2.92,2.92,0,0,1,1.91-2c13-2.42,18.32-7.62,20.74-20.5C39.88,18.53,40.58,12.47,43.54,6.88Z"/></g></g></svg>