<svg xmlns="http://www.w3.org/2000/svg" viewBox="0 0 60 60"><defs><style>.cls-1{fill:#fff;}</style></defs><g id="Layer_2" data-name="Layer 2"><g id="Layer_1-2" data-name="Layer 1"><path class="cls-1" d="M0,30A30,30,0,1,1,8.79,51.21,30,30,0,0,1,0,30ZM28.12,4c-2.51.76-5,3.07-7.07,7a31.05,31.05,0,0,0-1.76,4h8.83ZM15.34,15a34.61,34.61,0,0,1,2.4-5.77A24.18,24.18,0,0,1,20,5.73,26.28,26.28,0,0,0,8.46,15ZM13.15,28.12a52.29,52.29,0,0,1,1.17-9.37h-8a25.87,25.87,0,0,0-2.46,9.37Zm5-9.37a46.24,46.24,0,0,0-1.27,9.37H28.12V18.75Zm13.7,0v9.37H43.09a47,47,0,0,0-1.27-9.37Zm-15,13.13a47,47,0,0,0,1.27,9.37h9.94V31.88Zm15,0v9.37h9.94a46.09,46.09,0,0,0,1.27-9.37ZM19.29,45a30.25,30.25,0,0,0,1.76,4c2.07,3.88,4.57,6.18,7.07,7V45ZM20,54.27a24.18,24.18,0,0,1-2.24-3.5A34.61,34.61,0,0,1,15.34,45H8.46A26.28,26.28,0,0,0,20,54.27Zm-5.66-13a52.77,52.77,0,0,1-1.17-9.37H3.82a25.93,25.93,0,0,0,2.46,9.37Zm25.7,13A26.28,26.28,0,0,0,51.54,45H44.66a34.61,34.61,0,0,1-2.4,5.77A24.18,24.18,0,0,1,40,54.27ZM31.88,45V56c2.51-.76,5-3.07,7.07-7a30.25,30.25,0,0,0,1.76-4Zm13.79-3.75h8a25.93,25.93,0,0,0,2.46-9.37H46.85A51.88,51.88,0,0,1,45.67,41.25ZM56.18,28.12a25.87,25.87,0,0,0-2.46-9.37h-8a51.39,51.39,0,0,1,1.18,9.37ZM42.26,9.23A34.45,34.45,0,0,1,44.66,15h6.88A26.28,26.28,0,0,0,40,5.73,25.2,25.2,0,0,1,42.26,9.23ZM40.71,15A31.05,31.05,0,0,0,39,11C36.88,7.11,34.39,4.81,31.88,4V15Z"/></g></g></svg>