<svg xmlns="http://www.w3.org/2000/svg" viewBox="0 0 60 60"><defs><style>.cls-1{fill:#fff;}</style></defs><g id="Layer_2" data-name="Layer 2"><g id="Layer_1-2" data-name="Layer 1"><path class="cls-1" d="M30.06,15.05a9.84,9.84,0,0,0-7.28,16.38l0,0,.12.08a8.43,8.43,0,0,0,.86.83.77.77,0,0,0,.3.17,8.13,8.13,0,0,1,2.51,5.63h1.9a10.37,10.37,0,0,0-4.31-8.06,7.88,7.88,0,1,1,11.75.08,10.38,10.38,0,0,0-4.17,8h1.89a8.14,8.14,0,0,1,2.6-5.72.73.73,0,0,0,.26-.17,7.1,7.1,0,0,0,.68-.66,1.18,1.18,0,0,1,.25-.17l0-.05a9.84,9.84,0,0,0-7.31-16.35Z"/><rect class="cls-1" x="26.7" y="39.78" width="6.75" height="1.9"/><rect class="cls-1" x="27.5" y="43.03" width="5.17" height="1.9"/><path class="cls-1" d="M24.87,7.92l4.24-4.27v7.67H31V3.65l4.23,4.27a1,1,0,0,0,.67.28,1,1,0,0,0,.66-1.63L30.06,0,23.53,6.57a1,1,0,0,0,1.34,1.35Z"/><path class="cls-1" d="M3.62,30.83h7.61v-1.9H3.62l4.24-4.26a1,1,0,0,0,0-1.35,1,1,0,0,0-1.35,0L0,29.88l6.53,6.57a1,1,0,0,0,.66.28,1,1,0,0,0,.67-.28,1,1,0,0,0,0-1.35Z"/><path class="cls-1" d="M53.47,23.32a1,1,0,0,0-1.35,0,1,1,0,0,0,0,1.35l4.24,4.26H48.75v1.9h7.63L52.14,35.1a1,1,0,0,0,0,1.35,1,1,0,0,0,.67.28.94.94,0,0,0,.66-.28L60,29.88Z"/><path class="cls-1" d="M18,49.17h-6l5.39-5.42L16.1,42.4l-5.38,5.42v-6a.94.94,0,0,0-1-1,1,1,0,0,0-.95,1v9.29H18a1,1,0,0,0,.95-1A.93.93,0,0,0,18,49.17Z"/><path class="cls-1" d="M50.16,40.88a1,1,0,0,0-.94.95v6l-5.39-5.42L42.49,43.8l5.38,5.42h-6a1,1,0,0,0-.95,1,.94.94,0,0,0,.95.95h9.22V41.83A.93.93,0,0,0,50.16,40.88Z"/><path class="cls-1" d="M18,8.58H8.82v9.29a.94.94,0,0,0,.95.95,1,1,0,0,0,1-.95v-6l5.38,5.42,1.35-1.35-5.4-5.42h6a1,1,0,0,0,.95-1A.94.94,0,0,0,18,8.58Z"/><path class="cls-1" d="M41.87,10.55h6L42.49,16l1.34,1.35,5.39-5.42v6a.93.93,0,0,0,.94.95,1,1,0,0,0,1-.95V8.65H41.87a1,1,0,0,0,0,1.9Z"/><path class="cls-1" d="M35.24,52.08,31,56.35V48.68h-1.9v7.67l-4.24-4.27a1,1,0,1,0-1.34,1.35L30.06,60l6.53-6.57a1,1,0,1,0-1.35-1.35Z"/></g></g></svg>