<svg xmlns="http://www.w3.org/2000/svg" viewBox="0 0 60 46"><defs><style>.cls-1{fill:#fff;}</style></defs><g id="Layer_2" data-name="Layer 2"><g id="Layer_1-2" data-name="Layer 1"><path class="cls-1" d="M59.62,29.12a4.46,4.46,0,0,0-2.57-2.51,6.9,6.9,0,0,0-4.77.42l-11.45,5.6a4.24,4.24,0,0,0-.6-.68,5.3,5.3,0,0,0-3.66-1.36c-.13,0-5,.17-7.94,0a17.85,17.85,0,0,1-6-2c-.88-.41-1.79-.83-2.73-1.21-3.62-1.46-8.66,1.17-9,1.35L0,34.36l1,1.91,10.9-5.65h0c1.22-.65,4.89-2.16,7.15-1.25.9.36,1.78.77,2.64,1.16a19.06,19.06,0,0,0,6.81,2.2c3,.18,7.93,0,8.13,0h0a3.19,3.19,0,0,1,2.1.79,3.42,3.42,0,0,1,.94,2H27.53v2.2h14.4V36.62a8,8,0,0,0-.23-2L53.22,29a4.6,4.6,0,0,1,3.09-.34,2.08,2.08,0,0,1,.85.59L35.74,43.79a135.7,135.7,0,0,1-14.4-2c-7.29-1.69-9.14-.87-9.89-.11L13,43.24s1.11-.87,7.87.69a144.66,144.66,0,0,0,15.09,2l.38,0L60,29.93Z"/><path class="cls-1" d="M35.52,10.84a9.06,9.06,0,0,0-9.05,9.05,1.09,1.09,0,0,0,2.18,0,6.87,6.87,0,1,1,13.74,0,1.09,1.09,0,0,0,2.18,0A9.07,9.07,0,0,0,35.52,10.84Z"/><path class="cls-1" d="M35.46,9.92a5,5,0,1,0-5-5A5,5,0,0,0,35.46,9.92Zm0-7.76A2.8,2.8,0,1,1,32.66,5,2.79,2.79,0,0,1,35.46,2.16Z"/><path class="cls-1" d="M19.32,21a1.08,1.08,0,0,0,1.08-1.08,5.51,5.51,0,0,1,5.5-5.5,1.09,1.09,0,0,0,0-2.17,7.65,7.65,0,0,0-7.65,7.65A1.06,1.06,0,0,0,19.32,21Z"/><path class="cls-1" d="M25.83,11.84a4.29,4.29,0,1,0-4.28-4.29A4.29,4.29,0,0,0,25.83,11.84Zm0-6.42a2.12,2.12,0,1,1-2.12,2.12A2.12,2.12,0,0,1,25.83,5.42Z"/><path class="cls-1" d="M43.85,13.29a1.09,1.09,0,0,0,1.09,1.09,5.51,5.51,0,0,1,5.49,5.5,1.09,1.09,0,0,0,2.17,0A7.65,7.65,0,0,0,45,12.22,1.09,1.09,0,0,0,43.85,13.29Z"/><path class="cls-1" d="M45,11.84a4.29,4.29,0,1,0-4.28-4.29A4.29,4.29,0,0,0,45,11.84Zm0-6.42a2.12,2.12,0,1,1-2.12,2.12A2.12,2.12,0,0,1,45,5.42Z"/></g></g></svg>